<mxfile host="app.diagrams.net" modified="2024-03-20T06:29:01.983Z" agent="Mozilla/5.0 (Macintosh; Intel Mac OS X 10_15_7) AppleWebKit/537.36 (KHTML, like Gecko) Chrome/122.0.0.0 Safari/537.36" etag="YxdFndCToVHzkDudBKGF" version="24.0.7" type="github">
  <diagram name="第 1 页" id="qrMgz5GajKPzSdTHeKCY">
    <mxGraphModel dx="-407" dy="1146" grid="1" gridSize="10" guides="1" tooltips="1" connect="1" arrows="1" fold="1" page="1" pageScale="1" pageWidth="827" pageHeight="1169" math="0" shadow="0">
      <root>
        <mxCell id="0" />
        <mxCell id="1" parent="0" />
        <mxCell id="vwOBv4_fE_1iTVJs8tUP-1" value="a" style="ellipse;whiteSpace=wrap;html=1;dashed=1;fontSize=15;" vertex="1" parent="1">
          <mxGeometry x="3667" y="620" width="50" height="35" as="geometry" />
        </mxCell>
        <mxCell id="vwOBv4_fE_1iTVJs8tUP-2" value="a" style="ellipse;whiteSpace=wrap;html=1;dashed=1;fontSize=15;" vertex="1" parent="1">
          <mxGeometry x="3527" y="624.5" width="50" height="35" as="geometry" />
        </mxCell>
        <mxCell id="vwOBv4_fE_1iTVJs8tUP-3" value="b" style="ellipse;whiteSpace=wrap;html=1;fontSize=15;" vertex="1" parent="1">
          <mxGeometry x="3667" y="687.5" width="50" height="35" as="geometry" />
        </mxCell>
        <mxCell id="vwOBv4_fE_1iTVJs8tUP-4" value="b" style="ellipse;whiteSpace=wrap;html=1;fontSize=15;" vertex="1" parent="1">
          <mxGeometry x="3527" y="781.25" width="50" height="35" as="geometry" />
        </mxCell>
        <mxCell id="vwOBv4_fE_1iTVJs8tUP-5" value="c" style="ellipse;whiteSpace=wrap;html=1;fontSize=15;" vertex="1" parent="1">
          <mxGeometry x="3667" y="750" width="50" height="35" as="geometry" />
        </mxCell>
        <mxCell id="vwOBv4_fE_1iTVJs8tUP-6" value="d" style="ellipse;whiteSpace=wrap;html=1;fontSize=15;" vertex="1" parent="1">
          <mxGeometry x="3667" y="812.5" width="50" height="35" as="geometry" />
        </mxCell>
        <mxCell id="vwOBv4_fE_1iTVJs8tUP-7" value="e" style="ellipse;whiteSpace=wrap;html=1;fontSize=15;" vertex="1" parent="1">
          <mxGeometry x="3667" y="878.75" width="50" height="35" as="geometry" />
        </mxCell>
        <mxCell id="vwOBv4_fE_1iTVJs8tUP-8" value="f" style="ellipse;whiteSpace=wrap;html=1;fontSize=15;" vertex="1" parent="1">
          <mxGeometry x="3667" y="944" width="50" height="35" as="geometry" />
        </mxCell>
        <mxCell id="vwOBv4_fE_1iTVJs8tUP-9" value="h" style="ellipse;whiteSpace=wrap;html=1;dashed=1;fontSize=15;" vertex="1" parent="1">
          <mxGeometry x="3667" y="999" width="50" height="35" as="geometry" />
        </mxCell>
        <mxCell id="vwOBv4_fE_1iTVJs8tUP-10" value="h" style="ellipse;whiteSpace=wrap;html=1;dashed=1;fontSize=15;" vertex="1" parent="1">
          <mxGeometry x="3527" y="905" width="50" height="35" as="geometry" />
        </mxCell>
        <mxCell id="vwOBv4_fE_1iTVJs8tUP-11" value="c" style="ellipse;whiteSpace=wrap;html=1;fontSize=15;" vertex="1" parent="1">
          <mxGeometry x="3527" y="843.75" width="50" height="35" as="geometry" />
        </mxCell>
        <mxCell id="vwOBv4_fE_1iTVJs8tUP-12" value="d" style="ellipse;whiteSpace=wrap;html=1;fontSize=15;" vertex="1" parent="1">
          <mxGeometry x="3527" y="670" width="50" height="35" as="geometry" />
        </mxCell>
        <mxCell id="vwOBv4_fE_1iTVJs8tUP-13" value="g" style="ellipse;whiteSpace=wrap;html=1;fontSize=15;" vertex="1" parent="1">
          <mxGeometry x="3527" y="727.5" width="50" height="35" as="geometry" />
        </mxCell>
        <mxCell id="vwOBv4_fE_1iTVJs8tUP-14" value="newArray：" style="text;html=1;align=center;verticalAlign=middle;resizable=0;points=[];autosize=1;strokeColor=none;fillColor=none;fontSize=15;" vertex="1" parent="1">
          <mxGeometry x="3502" y="575" width="100" height="30" as="geometry" />
        </mxCell>
        <mxCell id="vwOBv4_fE_1iTVJs8tUP-15" value="oldArray：" style="text;html=1;align=center;verticalAlign=middle;resizable=0;points=[];autosize=1;strokeColor=none;fillColor=none;fontSize=15;" vertex="1" parent="1">
          <mxGeometry x="3647" y="575" width="90" height="30" as="geometry" />
        </mxCell>
        <mxCell id="vwOBv4_fE_1iTVJs8tUP-16" style="edgeStyle=orthogonalEdgeStyle;rounded=0;orthogonalLoop=1;jettySize=auto;html=1;exitX=0.5;exitY=1;exitDx=0;exitDy=0;fontSize=15;" edge="1" parent="1" source="vwOBv4_fE_1iTVJs8tUP-7" target="vwOBv4_fE_1iTVJs8tUP-7">
          <mxGeometry relative="1" as="geometry" />
        </mxCell>
        <mxCell id="vwOBv4_fE_1iTVJs8tUP-17" value="" style="endArrow=classic;html=1;rounded=0;exitX=1;exitY=0.5;exitDx=0;exitDy=0;entryX=0;entryY=0.5;entryDx=0;entryDy=0;dashed=1;fontSize=15;" edge="1" parent="1" source="vwOBv4_fE_1iTVJs8tUP-12" target="vwOBv4_fE_1iTVJs8tUP-6">
          <mxGeometry width="50" height="50" relative="1" as="geometry">
            <mxPoint x="3337" y="870" as="sourcePoint" />
            <mxPoint x="3387" y="820" as="targetPoint" />
          </mxGeometry>
        </mxCell>
        <mxCell id="vwOBv4_fE_1iTVJs8tUP-18" value="匹配" style="edgeLabel;html=1;align=center;verticalAlign=middle;resizable=0;points=[];" vertex="1" connectable="0" parent="vwOBv4_fE_1iTVJs8tUP-17">
          <mxGeometry x="-0.5836" relative="1" as="geometry">
            <mxPoint as="offset" />
          </mxGeometry>
        </mxCell>
        <mxCell id="vwOBv4_fE_1iTVJs8tUP-19" value="" style="endArrow=classic;html=1;rounded=0;exitX=0;exitY=0.5;exitDx=0;exitDy=0;entryX=1;entryY=0.5;entryDx=0;entryDy=0;dashed=1;fontSize=15;" edge="1" parent="1" source="vwOBv4_fE_1iTVJs8tUP-3" target="vwOBv4_fE_1iTVJs8tUP-4">
          <mxGeometry width="50" height="50" relative="1" as="geometry">
            <mxPoint x="3337" y="870" as="sourcePoint" />
            <mxPoint x="3387" y="820" as="targetPoint" />
          </mxGeometry>
        </mxCell>
        <mxCell id="vwOBv4_fE_1iTVJs8tUP-20" value="匹配" style="edgeLabel;html=1;align=center;verticalAlign=middle;resizable=0;points=[];" vertex="1" connectable="0" parent="vwOBv4_fE_1iTVJs8tUP-19">
          <mxGeometry x="-0.6958" y="-2" relative="1" as="geometry">
            <mxPoint as="offset" />
          </mxGeometry>
        </mxCell>
        <mxCell id="vwOBv4_fE_1iTVJs8tUP-21" value="" style="endArrow=classic;html=1;rounded=0;exitX=0;exitY=0.5;exitDx=0;exitDy=0;entryX=1;entryY=0.5;entryDx=0;entryDy=0;dashed=1;fontSize=15;" edge="1" parent="1" source="vwOBv4_fE_1iTVJs8tUP-5" target="vwOBv4_fE_1iTVJs8tUP-11">
          <mxGeometry width="50" height="50" relative="1" as="geometry">
            <mxPoint x="3677" y="715" as="sourcePoint" />
            <mxPoint x="3587" y="809" as="targetPoint" />
          </mxGeometry>
        </mxCell>
        <mxCell id="vwOBv4_fE_1iTVJs8tUP-22" value="匹配" style="edgeLabel;html=1;align=center;verticalAlign=middle;resizable=0;points=[];" vertex="1" connectable="0" parent="vwOBv4_fE_1iTVJs8tUP-21">
          <mxGeometry x="0.0829" relative="1" as="geometry">
            <mxPoint x="-1" as="offset" />
          </mxGeometry>
        </mxCell>
        <mxCell id="vwOBv4_fE_1iTVJs8tUP-23" value="" style="endArrow=classic;html=1;rounded=0;exitX=0;exitY=0.5;exitDx=0;exitDy=0;dashed=1;fontSize=15;" edge="1" parent="1" source="vwOBv4_fE_1iTVJs8tUP-7">
          <mxGeometry width="50" height="50" relative="1" as="geometry">
            <mxPoint x="3337" y="870" as="sourcePoint" />
            <mxPoint x="3577" y="980" as="targetPoint" />
          </mxGeometry>
        </mxCell>
        <mxCell id="vwOBv4_fE_1iTVJs8tUP-24" value="删除" style="edgeLabel;html=1;align=center;verticalAlign=middle;resizable=0;points=[];" vertex="1" connectable="0" parent="vwOBv4_fE_1iTVJs8tUP-23">
          <mxGeometry x="-0.29" y="1" relative="1" as="geometry">
            <mxPoint x="1" as="offset" />
          </mxGeometry>
        </mxCell>
        <mxCell id="vwOBv4_fE_1iTVJs8tUP-25" value="删除" style="endArrow=classic;html=1;rounded=0;exitX=0;exitY=0.5;exitDx=0;exitDy=0;dashed=1;fontSize=15;" edge="1" parent="1" source="vwOBv4_fE_1iTVJs8tUP-8">
          <mxGeometry width="50" height="50" relative="1" as="geometry">
            <mxPoint x="3677" y="906" as="sourcePoint" />
            <mxPoint x="3597" y="1030" as="targetPoint" />
          </mxGeometry>
        </mxCell>
        <mxCell id="vwOBv4_fE_1iTVJs8tUP-26" value="索引：" style="text;html=1;align=center;verticalAlign=middle;resizable=0;points=[];autosize=1;strokeColor=none;fillColor=none;fontSize=15;" vertex="1" parent="1">
          <mxGeometry x="3862" y="655" width="70" height="30" as="geometry" />
        </mxCell>
        <mxCell id="vwOBv4_fE_1iTVJs8tUP-27" value="" style="endArrow=classic;html=1;rounded=0;fontSize=15;" edge="1" parent="1">
          <mxGeometry width="50" height="50" relative="1" as="geometry">
            <mxPoint x="3767" y="704" as="sourcePoint" />
            <mxPoint x="3732" y="704" as="targetPoint" />
          </mxGeometry>
        </mxCell>
        <mxCell id="vwOBv4_fE_1iTVJs8tUP-28" value="oldStart" style="text;html=1;align=center;verticalAlign=middle;resizable=0;points=[];autosize=1;strokeColor=none;fillColor=none;fontSize=15;" vertex="1" parent="1">
          <mxGeometry x="3752" y="687.5" width="80" height="30" as="geometry" />
        </mxCell>
        <mxCell id="vwOBv4_fE_1iTVJs8tUP-29" value="" style="endArrow=classic;html=1;rounded=0;fontSize=15;" edge="1" parent="1">
          <mxGeometry width="50" height="50" relative="1" as="geometry">
            <mxPoint x="3767" y="963" as="sourcePoint" />
            <mxPoint x="3732" y="963" as="targetPoint" />
          </mxGeometry>
        </mxCell>
        <mxCell id="vwOBv4_fE_1iTVJs8tUP-30" value="oldEnd" style="text;html=1;align=center;verticalAlign=middle;resizable=0;points=[];autosize=1;strokeColor=none;fillColor=none;fontSize=15;" vertex="1" parent="1">
          <mxGeometry x="3757" y="946.5" width="70" height="30" as="geometry" />
        </mxCell>
        <mxCell id="vwOBv4_fE_1iTVJs8tUP-31" value="索引0" style="text;html=1;align=center;verticalAlign=middle;resizable=0;points=[];autosize=1;strokeColor=none;fillColor=none;fontSize=15;" vertex="1" parent="1">
          <mxGeometry x="3882" y="690" width="60" height="30" as="geometry" />
        </mxCell>
        <mxCell id="vwOBv4_fE_1iTVJs8tUP-32" value="索引1" style="text;html=1;align=center;verticalAlign=middle;resizable=0;points=[];autosize=1;strokeColor=none;fillColor=none;fontSize=15;" vertex="1" parent="1">
          <mxGeometry x="3882" y="750" width="60" height="30" as="geometry" />
        </mxCell>
        <mxCell id="vwOBv4_fE_1iTVJs8tUP-33" value="" style="endArrow=classic;html=1;rounded=0;exitX=0;exitY=0.5;exitDx=0;exitDy=0;exitPerimeter=0;dashed=1;fontSize=15;" edge="1" parent="1">
          <mxGeometry width="50" height="50" relative="1" as="geometry">
            <mxPoint x="3887" y="705" as="sourcePoint" />
            <mxPoint x="3827" y="705" as="targetPoint" />
          </mxGeometry>
        </mxCell>
        <mxCell id="vwOBv4_fE_1iTVJs8tUP-34" value="" style="endArrow=classic;html=1;rounded=0;dashed=1;entryX=1;entryY=0.5;entryDx=0;entryDy=0;fontSize=15;" edge="1" parent="1" source="vwOBv4_fE_1iTVJs8tUP-32" target="vwOBv4_fE_1iTVJs8tUP-5">
          <mxGeometry width="50" height="50" relative="1" as="geometry">
            <mxPoint x="3897" y="715" as="sourcePoint" />
            <mxPoint x="3837" y="715" as="targetPoint" />
          </mxGeometry>
        </mxCell>
        <mxCell id="vwOBv4_fE_1iTVJs8tUP-35" value="索引2" style="text;html=1;align=center;verticalAlign=middle;resizable=0;points=[];autosize=1;strokeColor=none;fillColor=none;fontSize=15;" vertex="1" parent="1">
          <mxGeometry x="3882" y="812" width="60" height="30" as="geometry" />
        </mxCell>
        <mxCell id="vwOBv4_fE_1iTVJs8tUP-36" value="" style="endArrow=classic;html=1;rounded=0;dashed=1;entryX=1;entryY=0.5;entryDx=0;entryDy=0;fontSize=15;" edge="1" parent="1" source="vwOBv4_fE_1iTVJs8tUP-35">
          <mxGeometry width="50" height="50" relative="1" as="geometry">
            <mxPoint x="3897" y="777" as="sourcePoint" />
            <mxPoint x="3717" y="830" as="targetPoint" />
          </mxGeometry>
        </mxCell>
        <mxCell id="vwOBv4_fE_1iTVJs8tUP-37" value="索引3" style="text;html=1;align=center;verticalAlign=middle;resizable=0;points=[];autosize=1;strokeColor=none;fillColor=none;fontSize=15;" vertex="1" parent="1">
          <mxGeometry x="3882" y="878.75" width="60" height="30" as="geometry" />
        </mxCell>
        <mxCell id="vwOBv4_fE_1iTVJs8tUP-38" value="" style="endArrow=classic;html=1;rounded=0;dashed=1;entryX=1;entryY=0.5;entryDx=0;entryDy=0;fontSize=15;" edge="1" parent="1" source="vwOBv4_fE_1iTVJs8tUP-37">
          <mxGeometry width="50" height="50" relative="1" as="geometry">
            <mxPoint x="3897" y="843.75" as="sourcePoint" />
            <mxPoint x="3717" y="896.75" as="targetPoint" />
          </mxGeometry>
        </mxCell>
        <mxCell id="vwOBv4_fE_1iTVJs8tUP-39" value="索引4" style="text;html=1;align=center;verticalAlign=middle;resizable=0;points=[];autosize=1;strokeColor=none;fillColor=none;fontSize=15;" vertex="1" parent="1">
          <mxGeometry x="3882" y="945" width="60" height="30" as="geometry" />
        </mxCell>
        <mxCell id="vwOBv4_fE_1iTVJs8tUP-40" value="" style="endArrow=classic;html=1;rounded=0;exitX=0;exitY=0.5;exitDx=0;exitDy=0;exitPerimeter=0;dashed=1;fontSize=15;" edge="1" parent="1">
          <mxGeometry width="50" height="50" relative="1" as="geometry">
            <mxPoint x="3882" y="961" as="sourcePoint" />
            <mxPoint x="3822" y="961" as="targetPoint" />
          </mxGeometry>
        </mxCell>
        <mxCell id="vwOBv4_fE_1iTVJs8tUP-41" value="source数组" style="text;html=1;strokeColor=none;fillColor=none;align=center;verticalAlign=middle;whiteSpace=wrap;rounded=0;fontSize=15;" vertex="1" parent="1">
          <mxGeometry x="3395" y="627" width="90" height="30" as="geometry" />
        </mxCell>
        <mxCell id="vwOBv4_fE_1iTVJs8tUP-42" value="3" style="text;html=1;align=center;verticalAlign=middle;resizable=0;points=[];autosize=1;strokeColor=none;fillColor=none;fontSize=15;" vertex="1" parent="1">
          <mxGeometry x="3425" y="675" width="30" height="30" as="geometry" />
        </mxCell>
        <mxCell id="vwOBv4_fE_1iTVJs8tUP-43" value="-1" style="text;html=1;align=center;verticalAlign=middle;resizable=0;points=[];autosize=1;strokeColor=none;fillColor=none;fontSize=15;" vertex="1" parent="1">
          <mxGeometry x="3420" y="728" width="40" height="30" as="geometry" />
        </mxCell>
        <mxCell id="vwOBv4_fE_1iTVJs8tUP-44" value="1" style="text;html=1;align=center;verticalAlign=middle;resizable=0;points=[];autosize=1;strokeColor=none;fillColor=none;fontSize=15;" vertex="1" parent="1">
          <mxGeometry x="3425" y="786.25" width="30" height="30" as="geometry" />
        </mxCell>
        <mxCell id="vwOBv4_fE_1iTVJs8tUP-45" value="2" style="text;html=1;align=center;verticalAlign=middle;resizable=0;points=[];autosize=1;strokeColor=none;fillColor=none;fontSize=15;" vertex="1" parent="1">
          <mxGeometry x="3425" y="850" width="30" height="30" as="geometry" />
        </mxCell>
        <mxCell id="vwOBv4_fE_1iTVJs8tUP-46" value="" style="endArrow=none;html=1;rounded=0;fontSize=15;" edge="1" parent="1">
          <mxGeometry width="50" height="50" relative="1" as="geometry">
            <mxPoint x="3410" y="669.5" as="sourcePoint" />
            <mxPoint x="3470" y="669.5" as="targetPoint" />
          </mxGeometry>
        </mxCell>
        <mxCell id="vwOBv4_fE_1iTVJs8tUP-47" value="" style="endArrow=none;html=1;rounded=0;fontSize=15;" edge="1" parent="1">
          <mxGeometry width="50" height="50" relative="1" as="geometry">
            <mxPoint x="3410" y="889.5" as="sourcePoint" />
            <mxPoint x="3470" y="889.5" as="targetPoint" />
          </mxGeometry>
        </mxCell>
        <mxCell id="vwOBv4_fE_1iTVJs8tUP-48" value="序列表(sequence&lt;span style=&quot;background-color: initial; font-size: 15px;&quot;&gt;)&lt;/span&gt;" style="text;html=1;strokeColor=none;fillColor=none;align=center;verticalAlign=middle;whiteSpace=wrap;rounded=0;fontSize=15;" vertex="1" parent="1">
          <mxGeometry x="3300" y="627" width="70" height="30" as="geometry" />
        </mxCell>
        <mxCell id="vwOBv4_fE_1iTVJs8tUP-49" value="" style="endArrow=none;html=1;rounded=0;fontSize=15;" edge="1" parent="1">
          <mxGeometry width="50" height="50" relative="1" as="geometry">
            <mxPoint x="3300" y="669.5" as="sourcePoint" />
            <mxPoint x="3360" y="669.5" as="targetPoint" />
          </mxGeometry>
        </mxCell>
        <mxCell id="vwOBv4_fE_1iTVJs8tUP-50" value="1" style="text;html=1;align=center;verticalAlign=middle;resizable=0;points=[];autosize=1;strokeColor=none;fillColor=none;fontSize=15;" vertex="1" parent="1">
          <mxGeometry x="3315" y="678" width="30" height="30" as="geometry" />
        </mxCell>
        <mxCell id="vwOBv4_fE_1iTVJs8tUP-51" value="2" style="text;html=1;align=center;verticalAlign=middle;resizable=0;points=[];autosize=1;strokeColor=none;fillColor=none;fontSize=15;" vertex="1" parent="1">
          <mxGeometry x="3315" y="730" width="30" height="30" as="geometry" />
        </mxCell>
        <mxCell id="vwOBv4_fE_1iTVJs8tUP-52" value="" style="endArrow=none;html=1;rounded=0;fontSize=15;" edge="1" parent="1">
          <mxGeometry width="50" height="50" relative="1" as="geometry">
            <mxPoint x="3300" y="774.5" as="sourcePoint" />
            <mxPoint x="3360" y="774.5" as="targetPoint" />
          </mxGeometry>
        </mxCell>
        <mxCell id="vwOBv4_fE_1iTVJs8tUP-53" value="[{op:delete, path: [&#39;oldArray&#39;, 3], oldVal: e},&lt;br style=&quot;font-size: 15px;&quot;&gt;{op: delete, path: [&#39;oldArray&#39;, 4], oldVal: f},&lt;br style=&quot;font-size: 15px;&quot;&gt;{op:add,path:[&#39;oldArray&#39;,&amp;nbsp; 0], val: g},&lt;br style=&quot;font-size: 15px;&quot;&gt;{op: move, path:[&#39;oldArray&#39;, [2,0]], val: d}]" style="rounded=1;whiteSpace=wrap;html=1;fontSize=15;" vertex="1" parent="1">
          <mxGeometry x="3455" y="1080" width="340" height="130" as="geometry" />
        </mxCell>
        <mxCell id="vwOBv4_fE_1iTVJs8tUP-54" value="&lt;span style=&quot;color: rgb(0, 0, 0); font-family: Helvetica; font-size: 15px; font-style: normal; font-variant-ligatures: normal; font-variant-caps: normal; font-weight: 400; letter-spacing: normal; orphans: 2; text-align: center; text-indent: 0px; text-transform: none; widows: 2; word-spacing: 0px; -webkit-text-stroke-width: 0px; background-color: rgb(251, 251, 251); text-decoration-thickness: initial; text-decoration-style: initial; text-decoration-color: initial; float: none; display: inline !important;&quot;&gt;结果&lt;/span&gt;" style="text;whiteSpace=wrap;html=1;fontSize=15;" vertex="1" parent="1">
          <mxGeometry x="3482" y="1080" width="60" height="40" as="geometry" />
        </mxCell>
      </root>
    </mxGraphModel>
  </diagram>
</mxfile>
